<?xml version="1.0" encoding="UTF-8"?>
<svg id="b" data-name="Layer 3" xmlns="http://www.w3.org/2000/svg" width="322.180632" height="288.707442" xmlns:xlink="http://www.w3.org/1999/xlink" viewBox="0 0 322.180632 288.707442">
  <defs>
    <radialGradient id="c" cx="285.250898" cy="129.938526" fx="-3.553789" fy="129.938526" r="288.816828" gradientUnits="userSpaceOnUse">
      <stop offset=".021997" stop-color="#fff"/>
      <stop offset=".472241" stop-color="#fff" stop-opacity="0"/>
      <stop offset=".694968" stop-color="#fff"/>
    </radialGradient>
    <radialGradient id="d" cx="250.694689" cy="53.475922" fx="250.694689" fy="53.475922" r="54.169452" xlink:href="#c"/>
    <radialGradient id="e" cx="277.791307" cy="437.174628" fx="-140.819209" fy="437.174628" r="418.628113" xlink:href="#c"/>
  </defs>
  <path d="M.498564,246.460663c-.139762,10.603838,9.081331,20.049939,19.682103,20.068805,19.518407.015407,73.664584.057493,93.963564.06503,41.532063.23198,147.781712.798069,187.929611.660596,5.151499-.173093,10.172678-2.454953,13.699533-6.190915,3.562866-3.706604,5.573853-8.816711,5.506775-13.945801-.089667-15.607975-.040803-47.04103-.080299-62.647065.078432-31.257582-.040901-62.906315.536018-93.970527.284589,31.323371.461239,62.646497.436627,93.970588-.054327,15.621137-.004782,47.031621-.080402,62.647094.029853,5.32657-2.104059,10.623628-5.818292,14.425996-3.677185,3.836975-8.880249,6.148071-14.180237,6.285706-39.693079-.309508-146.879552-.34625-187.950638-.344087-20.320998-.110187-74.220619-.357271-93.976264-.48468-10.751125-.160099-20.276974-9.937604-19.6681-20.54074H.498564Z" fill="#fff"/>
  <g opacity=".52">
    <g>
      <path d="M185.800445,43.543771v18.289551c0,10.309765,8.357716,18.66748,18.66748,18.66748h117.218262v-33.64209c0-11.22243-9.097577-20.320007-20.320007-20.320007h-121.171509c3.519897,4.760925,5.605774,10.64325,5.605774,17.005066Z" fill="url(#c)"/>
      <path d="M185.850433,43.543771l.028748,10.301422.014404,5.150726c.007019,1.716995-.035767,3.439026.174255,5.130066.199524,1.699142.713318,3.338272,1.34082,4.918594.716248,1.544464,1.571167,3.026794,2.653198,4.341751,2.160034,2.617355,5.018799,4.670288,8.227661,5.754822.784729.322266,1.625183.462036,2.439392.683105l1.25354.184174c.416321.075226.836548.110229,1.259644.115173l1.265259.051788,1.287659-.010468,2.575378-.020905,10.301392-.049011c6.867676-.029938,13.735291-.05835,20.602905-.011597l41.205688.16394,20.602844.087769c6.867615.03299,13.735229-.030457,20.602844-.040955l-.206482.206543-.082825-23.340469-.027771-5.835114-.013916-2.917557-.006958-1.458771-.075195-1.434082-.041016-.715714-.112-.70813c-.081726-.47052-.132507-.947205-.238708-1.412369-.244934-.923401-.455383-1.856735-.826599-2.739441-.293396-.911133-.767944-1.745544-1.175964-2.606445-.507751-.807571-.965759-1.64769-1.574646-2.385391-.542725-.787079-1.228271-1.455505-1.863525-2.164688-.715759-.628662-1.390015-1.306442-2.18158-1.840973-.742188-.600677-1.585999-1.049332-2.395508-1.547836-.863403-.397888-1.698303-.862808-2.607849-1.149261-.881409-.363602-1.812622-.56575-2.732605-.803284-.463623-.101852-.938354-.149246-1.406738-.227127l-.704712-.106461-.711975-.035309-1.426086-.064651-1.458801.003204-2.917542.006409-23.340454.051285c-15.560303-.033264-31.120605.028595-46.680908-.091385l-46.680908-.33046.086792-.172104c3.621826,4.905716,5.60437,10.983444,5.568848,17.069183ZM185.750457,43.543771c-.003418-6.065216-2.016907-12.094727-5.642578-16.940781l-.127747-.170746.214661-.001526,46.680908-.33046c15.560303-.11998,31.120605-.058121,46.680908-.091385l23.340454.051285,2.917542.006409,1.458801.003204,1.487915.073135.744629.041275.737427.113632c.490051.083054.986145.136368,1.470886.244919.962524.250946,1.934814.469498,2.855774.85228.949768.30397,1.820862.794525,2.716736,1.221832.842285.526917,1.716248,1.006058,2.485535,1.638626.818787.566452,1.517273,1.277618,2.254395,1.94075.656616.743652,1.360535,1.44754,1.918823,2.270813.624268.773819,1.09491,1.650833,1.612244,2.495361.417664.897995.898926,1.769562,1.196106,2.717667.375.919678.586365,1.889557.829407,2.848785.105286.482986.154419.977249.233887,1.465164l.108093.733948.036194.740845.062805,1.479996-.006958,1.458771-.013916,2.917557-.027771,5.835114-.082825,23.340469-.000732.207031-.205994-.000305c-6.867615-.010498-13.735229-.073944-20.602844-.040955l-20.602844.087769-41.205688.16394c-6.867615.046753-13.735229.018341-20.602905-.011597l-10.301392-.049011-2.575378-.020905-1.287659-.010468-1.306885-.074097c-.43689-.012848-.870483-.056183-1.299805-.140228l-1.290833-.211761c-.838074-.240234-1.700073-.400635-2.503967-.744568-3.285461-1.172119-6.18042-3.32431-8.342529-6.029526-1.08313-1.359055-1.930847-2.882843-2.633301-4.463516-.613831-1.616577-1.107361-3.286606-1.282837-5.009308-.188538-1.720444-.145386-3.443268-.139893-5.157288l.014404-5.150726.028748-10.301422Z" fill="url(#d)"/>
    </g>
    <g>
      <path d="M204.468414,90.500802c-15.832882,0-28.667969-12.835087-28.667969-28.667969v-18.289062c0-.378113-.011319-.7536-.033636-1.126144-.539779-9.010747-8.343072-15.878922-17.369971-15.878922H20.768646C9.548675,26.538705.448638,35.628732.448638,46.858712v199.601929c0,11.222396,9.09755,20.319946,20.319946,20.319946h280.597595c11.22243,0,20.320007-9.097577,20.320007-20.320007V90.500802h-117.217773Z" fill="url(#e)"/>
      <path d="M204.468414,90.55079c-8.155062-.009089-16.24008-3.574957-21.592931-9.763118-2.901128-3.262022-5.074166-7.271379-6.178358-11.490153-1.657259-5.150751-.859306-17.046372-1.051952-22.436131.259855-4.945034-.455222-10.140112-3.901086-13.943493-3.168069-3.819391-8.062844-6.069498-12.999551-6.154886-19.09151.003209-70.256696.123686-89.982189.156172-9.602968.065666-35.62552.042602-44.993262.05697C10.163615,25.879075-.089079,35.67809.836555,49.441627c-.047254,61.407694-.265901,135.446537-.205206,196.845704-.157574,9.415642,6.950971,18.204578,16.240425,19.893249,2.424886.526582,4.931295.340913,7.433126.376375,61.208597-.083481,162.836488-.219128,224.96669-.243428,9.505657-.06669,35.695148.038129,44.993216-.010619,4.909375-.098512,10.005612.540551,14.618586-1.48745,4.520568-1.84972,8.297057-5.432789,10.379638-9.846515,2.310815-4.400223,1.928575-9.664916,1.935104-14.490229-.136302-19.004158.238437-128.495631.216956-149.977868,1.785698.724884-117.382717-.173055-116.946676.049945h0ZM204.468414,90.450814c.20439.321767,117.821834-.770769,117.487886.049559.064724,22.070355.25526,130.30281.217911,149.978367-.031596,4.92845.360182,10.382657-2.036585,14.906714-2.187339,4.629538-6.14669,8.382132-10.889305,10.32012-4.727536,2.080978-9.969104,1.467841-14.983426,1.552519-9.233373-.044774-35.353702.022584-44.993422-.010498-62.503296-.306845-163.384101.044524-224.966213-.24403-2.483208-.041155-5.026482.142469-7.516533-.400896-9.455916-1.754946-16.718082-10.70508-16.522642-20.31546C.322861,184.890514.112663,110.846455.060917,49.441459c-.962011-14.122938,9.58183-24.428741,23.708225-23.339894,9.269382.01115,35.327988.014148,44.99329.056722,20.004548.037212,70.681112.137233,89.990333.189412,5.054637.105328,10.046397,2.424954,13.269115,6.336468,3.479294,3.888321,4.221148,9.148379,3.933424,14.177386.197844,5.454911-.687324,17.302745.965344,22.37591,1.081384,4.190215,3.225803,8.179981,6.094052,11.427937,5.304219,6.179742,13.338899,9.745262,21.453713,9.785415h0Z" fill="#fff"/>
    </g>
  </g>
</svg>