<?xml version="1.0" encoding="UTF-8"?>
<svg id="a" data-name="Layer 1" xmlns="http://www.w3.org/2000/svg" width="246.097693" height="288.707442" xmlns:xlink="http://www.w3.org/1999/xlink" viewBox="0 0 246.097693 288.707442">
  <defs>
    <radialGradient id="c" cx="261.051659" cy="351.591032" fx="-104.973457" fy="351.591032" r="366.040502" gradientUnits="userSpaceOnUse">
      <stop offset=".021997" stop-color="#fff"/>
      <stop offset=".472241" stop-color="#fff" stop-opacity="0"/>
      <stop offset=".694968" stop-color="#fff"/>
    </radialGradient>
    <radialGradient id="d" cx="216.000011" cy="30.148599" fx="-140.046175" fy="119.691411" r="372.430576" gradientUnits="userSpaceOnUse">
      <stop offset=".021997" stop-color="#fff"/>
      <stop offset=".060642" stop-color="#fff"/>
      <stop offset=".472241" stop-color="#fff" stop-opacity="0"/>
    </radialGradient>
  </defs>
  <path d="M.549987,267.331146c-.039095,9.813147,7.818319,18.785679,17.576197,19.863957,2.371008.294673,4.820288.158687,7.248632.179866,12.954102-.044584,37.806775-.111998,51.049554-.156078,45.096373.023971,100.834296.428326,145.855728.158328,4.835466.177188,9.724225-.463351,13.77791-3.252609,5.550487-3.570529,9.069562-9.98145,9.085848-16.569856-.091513-43.375674-.143826-97.188539.054029-140.381284.17384-19.38544-.050507-39.150611.411843-58.342341.169812,19.447465.241834,38.894883.312268,58.342302.250926,43.119773.115601,97.068327.0312,140.390202-.069223,6.828583-3.768056,13.472571-9.538473,17.113675-4.140355,2.815937-9.271334,3.476611-14.134745,3.247321-44.999572-.260746-100.781808.126078-145.855603.158778-13.192834-.047929-38.009582-.110928-51.049505-.156146-4.836035.085345-9.971316.029165-14.290861-2.508151-6.400188-3.43973-10.983602-10.981778-10.534023-18.087963h0Z" fill="#fff"/>
  <g id="b" data-name="Image" opacity=".52">
    <g>
      <path d="M209.900024,69.143594c-16.780029,0-30.380005-13.600037-30.380005-30.380005V1.153543H20.820007C9.600037,1.153543.5,10.243569.5,21.47355v246.170044c0,11.219971,9.100037,20.319946,20.320007,20.319946h204.419983c11.220032,0,20.320007-9.099976,20.320007-20.319946V69.143594h-35.659973ZM143.505188,209.652688H41.288574c-2.76123-1-5-3.23877-5-6s2.23877-5,5-5h102.216614c2.76123,0,5,2.23877,5,5s-2.23877,5-5,6ZM210.999939,178.241128H41.180115c-2.76123,0-5-2.23877-5-5s2.23877-5,5-5h169.819824c2.76123,0,5,2.23877,5,5s-2.23877,5-5,5ZM211,147.049783H41.180176c-2.76123,0-5-2.23877-5-5s2.23877-5,5-5h169.819824c2.76123,0,5,2.23877,5,5s-2.23877,5-5,5ZM211,113.085672H41.180176c-2.76123,0-5-2.23877-5-5s2.23877-5,5-5h169.819824c2.76123,0,5,2.23877,5,5s-2.23877,5-5,5Z" fill="url(#c)"/>
      <g>
        <path d="M209.900024,69.193604c-14.487212.202335-27.894472-11.030152-30.057299-25.38571-.641066-3.528535-.424696-7.116731-.470961-10.659639,0,0-.019653-10.664886-.019653-10.664886,0,0-.039307-21.329712-.039307-21.329712-29.396181.669996-126.210484.297785-155.085238.400645C11.74117.447035,1.138806,8.537532.852499,21.44905c-.056456,67.300505-.278711,165.941846-.082697,232.938005.023716,4.699859-.028042,9.424957.065556,14.104156.221137,9.378481,7.913469,17.829106,17.229239,18.919112,2.279337.304277,4.648477.179887,7.000955.200334,4.176926.031246,30.449028-.080097,35.293647-.060646,40.740906-.140821,100.593151.011135,141.174941-.065961,4.330769-.095037,16.902103.064014,21.176182-.005191,7.011116.467804,14.0105-2.071393,18.264386-7.803078,2.861182-3.664396,4.206595-8.245895,4.092146-12.887243-.051944-17.716726.086021-66.318712.131213-84.704943-.000008.000024.242729-112.939887.242729-112.939887.713796.323463-35.681536-.051575-35.540771.049896h0ZM209.900024,69.093597c.095654.136491,35.923772-.309824,35.778821.049848-.232549,52.144106.6202,146.393223.373572,197.644669.463343,9.734519-6.607974,19.147775-16.215194,21.134817-3.986317.864689-10.07917.429103-14.185622.523403-57.082781-.002534-126.384562-.017504-183.527345-.117746-3.985234-.161834-10.158662.253073-14.15298-.243155-4.754846-.611983-9.216577-3.037764-12.409509-6.583907-3.218292-3.525879-5.174255-8.207275-5.310242-12.98584-.080017-4.728088-.006287-9.417847-.021149-14.128662.095838-66.891132.068826-165.743205-.080546-232.938949C.061732,10.272749,9.493977.742126,20.696135.764462c-.000152-.00018,3.531404-.011257,3.531404-.011257,28.767754.104917,125.609457-.266601,155.499739.399945-.000044.000506-.03935,21.330218-.03935,21.330218,0,0-.019653,10.664886-.019653,10.664886.032654,3.551758-.19458,7.127472.427917,10.617584,2.089121,14.280858,15.401605,25.46703,29.803833,25.327759h0Z" fill="#fff"/>
        <path d="M143.513854,209.701935c-33.446102.692325-68.832828.156904-102.22517.122397-4.316821-1.265513-7.291333-6.651715-3.41805-10.145666,1.07919-1.000491,2.655117-1.383106,4.071765-1.304524-.000018-.000058,16.818158-.125271,16.818158-.125271l33.636353-.122467c16.209464-.024974,34.15604.129982,50.454632.263635,2.954244-.313335,5.895705,2.115906,5.820779,5.163152.02293,2.993515-2.50807,5.250291-5.158468,6.148745h0ZM143.49652,209.603455c2.51011-.931037,4.948916-3.199064,4.831665-6.043842-.060671-2.829062-2.701449-4.968001-5.476746-4.644156-16.336768.139948-34.218319.282264-50.454582.263504.000053.000025-33.636299-.122472-33.636299-.122472,0,0-16.818176-.125183-16.818176-.125183-2.757047-.325762-5.411065,1.809176-5.436594,4.629099-.171151,2.81572,2.553437,5.132634,4.783,5.920362,33.375967-.033677,68.780551-.569838,102.207732.122689h0Z" fill="#fff"/>
        <path d="M210.999938,178.291138c-52.782346.469058-109.42246.254037-162.333042.145916-.000026.000477-5.797634.019825-5.797634.019825l-1.449402.004822c-1.49736.060366-3.051505-.539081-4.070112-1.660146-3.112679-3.233442-.701347-8.892362,3.830511-8.834111,53.966583-.309949,108.335204-.390687,162.332921.134843.000003-.000083,5.79761.033669,5.79761.033669.959106.037964,1.94165-.091522,2.90918.162292,5.702156,1.505902,4.780601,9.897625-1.220032,9.992889h0ZM210.999938,178.191132c5.722734-.088073,6.811268-8.228702,1.174006-9.706496-.917414-.238542-1.899287-.107743-2.863154-.138322l-5.797607.033722c-54.006793.526089-108.357952.44413-162.333077.134785-4.025508-.089514-6.326962,5.021242-3.485911,7.966635,1.334801,1.526951,3.264065,1.617743,5.175148,1.5438-.00008.000135,5.797527.019452,5.797527.019452,52.948331-.1098,109.51265-.320496,162.333069.146423h0Z" fill="#fff"/>
        <path d="M210.999999,147.099792c-52.782346.469058-109.42246.254037-162.333042.145916-.000026.000477-5.797634.019825-5.797634.019825l-1.449402.004822c-1.49736.060366-3.051505-.539081-4.070112-1.660146-3.112679-3.233442-.701347-8.892362,3.830511-8.834111,53.966583-.309949,108.335204-.390687,162.332921.134843.000003-.000083,5.79761.033669,5.79761.033669.959106.037964,1.94165-.091522,2.90918.162292,5.702156,1.505902,4.780601,9.897625-1.220032,9.992889h0ZM210.999999,146.999786c5.722734-.088073,6.811268-8.228702,1.174006-9.706496-.917414-.238542-1.899287-.107743-2.863154-.138322l-5.797607.033722c-54.006793.526089-108.357952.44413-162.333077.134785-4.025508-.089514-6.326962,5.021242-3.485911,7.966635,1.334801,1.526951,3.264065,1.617743,5.175148,1.5438-.00008.000135,5.797527.019452,5.797527.019452,52.948331-.1098,109.51265-.320496,162.333069.146423h0Z" fill="#fff"/>
        <path d="M210.999999,113.135681c-52.782346.469058-109.42246.254037-162.333042.145916-.000026.000477-5.797634.019825-5.797634.019825l-1.449402.004822c-1.49736.060366-3.051505-.539081-4.070112-1.660146-3.112679-3.233442-.701347-8.892362,3.830511-8.834111,53.966583-.309949,108.335204-.390687,162.332921.134843.000003-.000083,5.79761.033669,5.79761.033669.959106.037964,1.94165-.091522,2.90918.162292,5.702156,1.505902,4.780601,9.897625-1.220032,9.992889h0ZM210.999999,113.035675c5.722734-.088073,6.811268-8.228702,1.174006-9.706496-.917414-.238542-1.899287-.107743-2.863154-.138322l-5.797607.033722c-54.006793.526089-108.357952.44413-162.333077.134785-4.025508-.089514-6.326962,5.021242-3.485911,7.966635,1.334801,1.526951,3.264065,1.617743,5.175148,1.5438-.00008.000135,5.797527.019452,5.797527.019452,52.948331-.1098,109.51265-.320496,162.333069.146423h0Z" fill="#fff"/>
      </g>
    </g>
    <g>
      <path d="M189.52,38.76362V1.153573l52.960022,57.990051h-32.580017c-11.25,0-20.380005-9.119995-20.380005-20.380005Z" fill="url(#d)"/>
      <path d="M189.46997,38.763611c-.011831-11.783479-.385974-25.826508-.39415-37.609928-.000015.000004-.006546-1.153682-.006546-1.153682,0,0,.778809.854095.778809.854095,17.135718,19.268505,35.324149,39.080472,52.98995,57.962431-.000204.000185.750162.809237.750162.809237l-1.108276.002502c-9.563809-.036711-22.87666.119136-32.29211-.025454-11.20941.219102-20.97181-9.680111-20.717839-20.839201h0ZM189.570007,38.763611c-.139682,11.07243,9.656513,20.323611,20.618025,19.920568,5.381853-.077215,10.763872-.037298,16.14583-.061804,0,0,16.146057.036591,16.146057.036591,0,0-.357849.811401-.357849.811401-17.225098-19.314729-35.27373-39.196341-52.930229-58.016988.000236-.000194.772392-.299693.772392-.299693l-.053345,9.402466c-.11798,8.378472-.334827,19.829154-.340881,28.207458h0Z" fill="#fff"/>
    </g>
  </g>
</svg>