<?xml version="1.0" encoding="UTF-8"?>
<svg id="a" data-name="Layer 1" xmlns="http://www.w3.org/2000/svg" width="246.097693" height="288.474521" xmlns:xlink="http://www.w3.org/1999/xlink" viewBox="0 0 246.097693 288.474521">
  <defs>
    <filter id="c" data-name="drop-shadow-1" x="31.592327" y="65.919961" width="81.12" height="80.4" filterUnits="userSpaceOnUse">
      <feOffset dx="3" dy="3"/>
      <feGaussianBlur result="d" stdDeviation="2"/>
      <feFlood flood-color="#000" flood-opacity="1"/>
      <feComposite in2="d" operator="in"/>
      <feComposite in="SourceGraphic"/>
    </filter>
    <filter id="e" data-name="drop-shadow-2" x="33.992327" y="138.879961" width="188.16" height="112.32" filterUnits="userSpaceOnUse">
      <feOffset dx="3" dy="3"/>
      <feGaussianBlur result="f" stdDeviation="2"/>
      <feFlood flood-color="#000" flood-opacity="1"/>
      <feComposite in2="f" operator="in"/>
      <feComposite in="SourceGraphic"/>
    </filter>
    <radialGradient id="g" cx="261.051659" cy="351.591056" fx="-104.973457" fy="351.591056" r="366.040502" gradientUnits="userSpaceOnUse">
      <stop offset=".021997" stop-color="#fff"/>
      <stop offset=".472241" stop-color="#fff" stop-opacity="0"/>
      <stop offset=".694968" stop-color="#fff"/>
    </radialGradient>
    <radialGradient id="h" cx="216.000031" cy="30.148592" fx="-6.93382" fy="86.2147" r="233.192731" gradientUnits="userSpaceOnUse">
      <stop offset=".021997" stop-color="#fff"/>
      <stop offset=".060642" stop-color="#fff"/>
      <stop offset=".472241" stop-color="#fff" stop-opacity="0"/>
    </radialGradient>
  </defs>
  <g id="b" data-name="Image" opacity=".52">
    <path d="M69.199038,69.143617c18.75,0,33.950012,15.199951,33.950012,33.949951,0,18.740051-15.200012,33.940002-33.950012,33.940002s-33.940002-15.199951-33.940002-33.940002c0-18.75,15.190002-33.949951,33.940002-33.949951Z" fill="none" filter="url(#c)" stroke="#fff" stroke-miterlimit="10"/>
    <path d="M205.189028,241.633608H44.809023c-6.280029,0-9.859985-7.190002-6.059998-12.210022l43.940002-58c2-2.630005,5.460022-3.679993,8.580017-2.589966l31.809998,11.109985c2.639954.919983,5.570007.320007,7.639954-1.559998l37.150024-33.840027c3.960022-3.609985,10.299988-2.109985,12.219971,2.890015l32.200012,83.859985c1.910034,4.98999-1.76001,10.340027-7.099976,10.340027Z" fill="none" filter="url(#e)" stroke="#fff" stroke-miterlimit="10"/>
    <g>
      <path d="M209.900024,69.143617c-16.780029,0-30.380005-13.600037-30.380005-30.380005V1.153566H20.820007C9.600037,1.153566.5,10.243593.5,21.473573v246.170044c0,11.219971,9.100037,20.319946,20.320007,20.319946h204.419983c11.220032,0,20.320007-9.099976,20.320007-20.319946V69.143617h-35.659973ZM69.350037,69.143617c18.75,0,33.950012,15.199951,33.950012,33.949951,0,18.740051-15.200012,33.940002-33.950012,33.940002s-33.940002-15.199951-33.940002-33.940002c0-18.75,15.190002-33.949951,33.940002-33.949951ZM205.340027,241.633608H44.960022c-6.280029,0-9.859985-7.190002-6.059998-12.210022l43.940002-58c2-2.630005,5.460022-3.679993,8.580017-2.589966l31.809998,11.109985c2.639954.919983,5.570007.320007,7.639954-1.559998l37.150024-33.840027c3.960022-3.609985,10.299988-2.109985,12.219971,2.890015l32.200012,83.859985c1.910034,4.98999-1.76001,10.340027-7.099976,10.340027Z" fill="url(#g)"/>
      <g>
        <path d="M209.899998,69.193604c-14.487176.202373-27.894487-11.030163-30.057299-25.38568-.641005-3.528535-.424696-7.116731-.4709-10.659669,0,0-.019653-10.664856-.019653-10.664856,0,0-.039307-21.329727-.039307-21.329727-29.396155.670052-126.210551.297765-155.085299.40066C11.741171.447031,1.138783,8.537611.852503,21.449081c-.056481,67.300512-.278694,165.941838-.082697,232.938005.023685,4.699859-.028072,9.424957.065556,14.104126.221157,9.378482,7.913423,17.829107,17.229239,18.919112,2.279306.304277,4.648477.179948,7.000955.200334,4.176951.031245,30.449036-.080096,35.293677-.060646,40.740906-.140821,100.593151.011135,141.174941-.065961,4.330736-.095043,16.902076.064007,21.176121-.00513,7.011136.46767,14.010498-2.071351,18.264386-7.803078,2.861241-3.664431,4.206609-8.245894,4.092146-12.887304-.05196-17.716711.08606-66.318696.131274-84.704912-.000008.000024.242729-112.939918.242729-112.939918.713796.323463-35.681597-.051575-35.540833.049896h0ZM209.899998,69.093628c.095608.136469,35.923867-.309777,35.778821.049817-.232577,52.144096.620239,146.393233.373633,197.644669.463179,9.734532-6.607919,19.147779-16.215255,21.134878-3.986245.86465-10.079153.429023-14.185561.523342-57.082781-.002405-126.384562-.017538-183.527345-.117685-3.985263-.16179-10.158676.252969-14.153041-.243155-4.754846-.612044-9.216577-3.037825-12.409479-6.583907-3.218292-3.52594-5.174255-8.207275-5.310242-12.985901-.080017-4.728088-.006287-9.417816-.021179-14.128632.095906-66.891139.06884-165.743198-.080515-232.938949C.061701,10.272799,9.493972.742147,20.696109.764477c-.000152-.00018,3.531404-.011242,3.531404-.011242,28.767709.104881,125.609497-.26656,155.499739.39993-.000044.000506-.03935,21.330233-.03935,21.330233,0,0-.019653,10.664856-.019653,10.664856.032654,3.551788-.19458,7.127502.427979,10.617584,2.089129,14.28091,15.40151,25.467031,29.803772,25.327789h0Z" fill="#fff"/>
        <path d="M69.35001,69.093628c24.28987-.141191,41.321684,24.558677,31.622162,47.088636-12.099144,27.84801-51.452789,28.261023-63.45777.09928-9.425865-22.649183,7.445687-47.302238,31.835609-47.187916h0ZM69.35001,69.193604c-29.743257.266683-44.482889,36.453401-23.664389,57.568668,12.641452,13.082297,34.835552,13.365253,47.550625.203545,20.770811-21.128863,5.816235-57.586878-23.886237-57.772213h0Z" fill="#fff"/>
        <path d="M205.340001,241.683594c-53.651693.008316-108.300189.888556-161.972959.01374-5.192457-.890682-8.003614-7.544129-4.960714-11.861719-.000165.000048,35.464556-47.026227,35.464556-47.026227,0,0,8.85968-11.769714,8.85968-11.769714,1.986414-2.540442,5.596427-3.631367,8.66108-2.594361-.000009-.00003,1.748038.596833,1.748038.596833,6.330516,2.18793,18.066099,6.225887,24.349139,8.41716,2.003802.665401,4.944738,1.819824,6.909644,2.324071,2.276312.440135,4.712348-.291066,6.383246-1.941823l5.439026-4.959656c7.833423-7.138239,19.388076-17.682998,27.194907-24.798324.00004-.000047,2.719522-2.479875,2.719522-2.479875.677507-.593707,2.035409-1.95272,2.905075-2.40379,4.906689-2.918691,10.852934.089101,12.206475,5.474454.000205-.000169,5.252342,13.752822,5.252342,13.752822,5.153009,13.730638,15.655709,41.358141,20.833522,55.079072.000035-.000062,5.218053,13.766204,5.218053,13.766204,1.976123,4.815912-1.991672,10.598484-7.210632,10.411133h0ZM205.340001,241.583618c5.094946.129422,8.99334-5.526373,7.000912-10.231531.000187.000117-5.333614-13.721136-5.333614-13.721136-5.3533-13.678475-16.02276-41.199463-21.383282-54.867952.000104.000063-5.301898-13.733702-5.301898-13.733702-1.217743-4.829746-6.325714-7.597286-10.784141-4.991008-1.607738,1.025247-3.940384,3.454102-5.471042,4.760192.000117.000011-5.444218,4.95399-5.444218,4.95399-7.873314,7.168298-19.383988,17.635121-27.221771,24.769934-2.289531,2.313515-6.034484,2.909134-8.999236,1.614031-1.118996-.393953-4.059074-1.418145-5.21094-1.822997-4.456863-1.559906-16.236954-5.72154-20.825137-7.345891-1.915409-.578396-4.959908-2.003949-6.913692-2.179007-2.336059-.199125-4.736816.828127-6.209777,2.6644,0,0-8.93512,11.687347-8.93512,11.687347-10.34171,13.802707-25.509959,33.187019-35.581952,46.89994-2.837565,4.082349-.182561,10.397218,4.736336,11.189059,1.94763.292221,5.249705.105879,7.301101.141126,51.25284-.371568,103.388096.079139,154.577473.213205h0Z" fill="#fff"/>
      </g>
    </g>
    <g>
      <path d="M189.52002,38.763613V1.153566l52.960022,57.990051h-32.580017c-11.25,0-20.380005-9.119995-20.380005-20.380005Z" fill="url(#h)"/>
      <path d="M189.470005,38.763611c-.011862-11.783484-.386005-25.826518-.39415-37.609944-.000015.000004-.006607-1.153667-.006607-1.153667,0,0,.77887.85408.77887.85408,17.1357,19.26859,35.324112,39.080444,52.98995,57.962446-.000204.000185.750101.809237.750101.809237,0,0-1.108215.002502-1.108215.002502-9.563759-.03671-22.876768.119136-32.29211-.025454-11.209437.219122-20.971805-9.680057-20.717839-20.839201h0ZM189.570042,38.763611c-.139668,11.072402,9.656472,20.323645,20.618025,19.920538,5.381792-.077185,10.763811-.037298,16.14583-.061773,0,0,16.146057.036591,16.146057.036591,0,0-.357849.811401-.357849.811401-17.225095-19.31473-35.273768-39.196339-52.930229-58.016988.000236-.000194.772331-.299708.772331-.299708,0,0-.053284,9.402481-.053284,9.402481-.11806,8.378471-.334907,19.829153-.340881,28.207458h0Z" fill="#fff"/>
    </g>
  </g>
  <path d="M.549987,267.43221c-.039094,9.813181,7.81831,18.785609,17.576197,19.863957,2.371008.294674,4.820287.158687,7.248632.179866,12.954102-.044688,37.806775-.111944,51.049554-.156078,45.096373.023978,100.834296.428307,145.855728.158328,4.835466.177188,9.724225-.463351,13.77791-3.252609,5.550453-3.570501,9.069552-9.981446,9.085848-16.569856-.091513-43.375664-.143826-97.188561.054029-140.381284.17384-19.38544-.050507-39.150642.411843-58.342341.169812,19.447435.241834,38.894883.312268,58.342302.250926,43.119751.115601,97.068337.0312,140.390202-.069223,6.828583-3.768056,13.472571-9.538473,17.113675-4.140352,2.815952-9.27133,3.476564-14.134745,3.247321-44.999572-.260698-100.781809.125959-145.855603.158778-13.192834-.047955-38.009582-.110863-51.049505-.156207-4.83602.08539-9.971314.029148-14.290861-2.50809-6.400187-3.439725-10.9836-10.981821-10.534023-18.087963h0Z" fill="#fff"/>
</svg>