<?xml version="1.0" encoding="UTF-8"?>
<svg id="a" data-name="Layer 1" xmlns="http://www.w3.org/2000/svg" width="89.58457" height="115.106433" viewBox="0 0 89.58457 115.106433">
  <path d="M40.080276,46.317708l-.507295.507295-.194308-.199677c.232056-.102539.469514-.205079.701603-.307618Z" fill="#fff"/>
  <path d="M45.579556,40.818428c10.71792-4.576426,20.491409-11.219812,28.964299-19.266372,2.455511-2.309788,4.786907-4.754527,7.069717-7.253221-2.126317,2.62821-4.317393,5.21327-6.643387,7.679552-6.999557,7.442127-14.954348,13.966768-23.907556,19.001937-3.524088,2.012974-7.247819,3.707558-10.982355,5.337385-.232089.102539-.469547.205079-.701603.307618-2.277409.98758-4.549449,1.95902-6.772903,2.97361-5.931013,2.70374-11.327754,6.249402-15.299747,11.403283,0,0-.010804-.010771-.037781-.032379-1.181888,1.748572-2.158696,3.6428-2.876472,5.704359-3.437721,9.881431-1.651401,21.694905,5.91484,29.271917,11.953761,12.396331,33.001051,10.464288,42.817724-3.696754,3.232675-4.549449,5.391372-10.097314,5.591049-15.790869,0,0-.134919,0,0,0s0,0,0,0c.593628,27.302127-31.603313,41.085391-51.409359,22.569174-13.168061-12.061703-13.999147-33.983262.447906-45.429761,2.326027-1.905065,4.911054-3.464698,7.636402-4.72755l4.426885-2.265578c-6.08378-1.950702-11.343999-6.603396-13.973721-12.526874-4.258036-9.363365-1.446323-20.372697,5.893232-27.323702C34.958741-5.777047,56.793967-.132045,61.618655,17.585465c.561249,2.223455.480318,4.506265.431733,6.762099,0,0,.134919,0,0,0s0,0,0,0c-.24286-4.376749-1.969791-8.629383-4.522472-12.15884C46.167783-3.251377,21.369752,2.361247,19.497098,21.897456c-.191178,8.376246,4.264427,15.873876,11.201828,18.955344,6.898879,3.064348,13.490815.534939,14.88063-.034372Z" fill="#fff"/>
  <path d="M82.703725,27.904031c-3.50994,3.438915-7.76661,7.123993-12.848222,10.704349-8.772111,6.180574-17.250867,10.110388-24.186122,12.652565-.886814.325069-1.757612.689245-2.617164,1.080753l-.009135.004161c-6.745926,3.070747-13.297577,7.307175-17.71751,13.356934,5.04057-5.483074,11.667751-8.802083,18.640331-11.111871,1.060952-.498624,10.263574-4.634036,19.557685.28951.252497.13376.499218.27111.740278.411699,5.988491,3.492529,9.566684,10.019463,9.617287,16.951795.007987,1.094126.006532,2.267259-.003129,3.508955-.023601,3.034316-.186847,6.042998-.677952,8.768345-1.565068,9.509055-7.296404,18.240978-15.418493,23.475823-11.969967,7.852251-27.410068,7.14528-38.575926-1.807895C-.535601,90.38748-.201014,61.696616,19.572661,45.911149c0,0-7.323381,4.265209-10.129693,7.368335-15.127081,16.918802-11.748715,43.794566,7.760516,55.775337,18.030497,11.516627,43.859291,6.060529,55.586431-11.824278l.885073-1.338381.766328-1.408541c1.570437-2.795508,2.687566-5.941817,3.362159-9.055747,1.721562-7.269394,1.171084-17.280342,1.43015-24.69009.042715-2.365464.06854-4.737354.080454-7.112827.057787-11.521597,3.657488-22.74717,10.268564-32.183494l.001927-.00275c-.958956.926461-1.932635,1.856233-2.921154,2.788805-1.326737,1.251653-2.647035,2.47702-3.959691,3.676513" fill="#fff"/>
</svg>